<svg width="16" height="16" viewBox="0 0 16 16" fill="none" xmlns="http://www.w3.org/2000/svg">
<path d="M8.88368 8.001L15.8167 1.06795C16.0608 0.823858 16.0608 0.428109 15.8167 0.184047C15.5726 -0.0600155 15.1769 -0.0600468 14.9328 0.184047L7.99975 7.1171L1.06673 0.184047C0.822637 -0.0600468 0.426888 -0.0600468 0.182826 0.184047C-0.0612362 0.42814 -0.0612675 0.823889 0.182826 1.06795L7.11584 8.00097L0.182826 14.934C-0.0612675 15.1781 -0.0612675 15.5739 0.182826 15.8179C0.304857 15.94 0.464825 16.001 0.624794 16.001C0.784762 16.001 0.944699 15.94 1.06676 15.8179L7.99975 8.8849L14.9328 15.8179C15.0548 15.94 15.2148 16.001 15.3747 16.001C15.5347 16.001 15.6946 15.94 15.8167 15.8179C16.0608 15.5738 16.0608 15.1781 15.8167 14.934L8.88368 8.001Z" fill="#374957"/>
</svg>
