<svg width="28" height="28" viewBox="0 0 28 28" fill="none" xmlns="http://www.w3.org/2000/svg">
<rect x="0.5" y="0.5" width="27" height="27" rx="1.5" fill="#1273EB" stroke="#1273EB"/>
<g clip-path="url(#clip0)">
<path d="M11.5413 21.8446C11.3408 22.0462 11.0673 22.1587 10.7832 22.1587C10.4991 22.1587 10.2256 22.0462 10.0252 21.8446L3.9712 15.7896C3.34293 15.1614 3.34293 14.1426 3.9712 13.5155L4.72925 12.7572C5.35772 12.129 6.37532 12.129 7.00359 12.7572L10.7832 16.5371L20.9964 6.32374C21.6248 5.69547 22.6434 5.69547 23.2707 6.32374L24.0288 7.08199C24.657 7.71026 24.657 8.72884 24.0288 9.35613L11.5413 21.8446Z" fill="white"/>
</g>
<defs>
<clipPath id="clip0">
<rect width="21" height="21" fill="white" transform="translate(3.5 3.5)"/>
</clipPath>
</defs>
</svg>
